<svg width="67" height="73" viewBox="0 0 67 73" fill="none" xmlns="http://www.w3.org/2000/svg">
<path d="M28.1833 53.35L54.3271 24.8562L49.1354 19.1979L28.1833 42.0333L17.6146 30.5146L12.4229 36.1729L28.1833 53.35ZM7.41667 72.75C5.37708 72.75 3.63108 71.9585 2.17865 70.3755C0.726215 68.7925 0 66.8896 0 64.6667V8.08333C0 5.86042 0.726215 3.95747 2.17865 2.37448C3.63108 0.791493 5.37708 0 7.41667 0H59.3333C61.3729 0 63.1189 0.791493 64.5714 2.37448C66.0238 3.95747 66.75 5.86042 66.75 8.08333V64.6667C66.75 66.8896 66.0238 68.7925 64.5714 70.3755C63.1189 71.9585 61.3729 72.75 59.3333 72.75H7.41667ZM7.41667 64.6667H59.3333V8.08333H7.41667V64.6667Z" fill="#34C759"/>
</svg>
