<svg width="81" height="60" viewBox="0 0 81 60" fill="none" xmlns="http://www.w3.org/2000/svg">
<path d="M32.3333 56.9229V35.7854L37.9917 20.9521C38.3285 20.2722 38.8 19.716 39.4063 19.2833C40.0799 18.7889 40.8882 18.5417 41.8313 18.5417H71.3354C72.2785 18.5417 73.0868 18.7889 73.7604 19.2833C74.434 19.716 74.9056 20.2722 75.175 20.9521L80.8333 35.7854V56.9229C80.8333 57.6028 80.5639 58.1899 80.025 58.6844C79.5535 59.117 78.9472 59.3333 78.2063 59.3333H75.3771C74.6361 59.3333 73.9962 59.117 73.4573 58.6844C72.9858 58.1899 72.75 57.6028 72.75 56.9229V53.7708H40.4167V56.9229C40.4167 57.6028 40.1472 58.1899 39.6083 58.6844C39.1368 59.117 38.5306 59.3333 37.7896 59.3333H34.9604C34.2194 59.3333 33.5795 59.117 33.0406 58.6844C32.5691 58.1899 32.3333 57.6028 32.3333 56.9229ZM40.4167 31.5208H72.75L69.9208 24.1042H43.2458L40.4167 31.5208ZM38.3958 37.0833V48.2083V37.0833ZM44.4583 46.3542C45.6035 46.3542 46.5465 46.0142 47.2875 45.3344C48.0958 44.5927 48.5 43.6965 48.5 42.6458C48.5 41.5951 48.0958 40.7299 47.2875 40.05C46.5465 39.3083 45.6035 38.9375 44.4583 38.9375C43.3132 38.9375 42.3365 39.3083 41.5281 40.05C40.7872 40.7299 40.4167 41.5951 40.4167 42.6458C40.4167 43.6965 40.7872 44.5927 41.5281 45.3344C42.3365 46.0142 43.3132 46.3542 44.4583 46.3542ZM68.7083 46.3542C69.8535 46.3542 70.7965 46.0142 71.5375 45.3344C72.3458 44.5927 72.75 43.6965 72.75 42.6458C72.75 41.5951 72.3458 40.7299 71.5375 40.05C70.7965 39.3083 69.8535 38.9375 68.7083 38.9375C67.5632 38.9375 66.5865 39.3083 65.7781 40.05C65.0372 40.7299 64.6667 41.5951 64.6667 42.6458C64.6667 43.6965 65.0372 44.5927 65.7781 45.3344C66.5865 46.0142 67.5632 46.3542 68.7083 46.3542ZM8.08333 59.3333V55.625L12.125 51.9167C8.75695 51.9167 5.8941 50.8351 3.53646 48.6719C1.17882 46.5087 0 43.8819 0 40.7917V11.125C0 7.04583 1.98715 4.17187 5.96146 2.50312C9.93577 0.834375 16.7056 0 26.2708 0C36.2403 0 43.1111 0.803472 46.8833 2.41042C50.6556 4.01736 52.5417 6.92222 52.5417 11.125V14.8333H44.4583V11.125H8.08333V33.375H28.2917V59.3333H8.08333ZM12.125 44.5C13.2701 44.5 14.2132 44.1601 14.9542 43.4802C15.7625 42.7385 16.1667 41.8424 16.1667 40.7917C16.1667 39.741 15.7625 38.8757 14.9542 38.1958C14.2132 37.4542 13.2701 37.0833 12.125 37.0833C10.9799 37.0833 10.0031 37.4542 9.19479 38.1958C8.45382 38.8757 8.08333 39.741 8.08333 40.7917C8.08333 41.8424 8.45382 42.7385 9.19479 43.4802C10.0031 44.1601 10.9799 44.5 12.125 44.5ZM38.3958 48.2083H74.7708V37.0833H38.3958V48.2083Z" fill="#34C759"/>
</svg>
