<svg width="70" height="70" viewBox="0 0 70 70" fill="none" xmlns="http://www.w3.org/2000/svg">
<path d="M34.875 58.125L50.375 42.625L44.95 37.2L38.75 43.4V27.125H31V43.4L24.8 37.2L19.375 42.625L34.875 58.125ZM7.75 69.75C5.61875 69.75 3.79427 68.9911 2.27656 67.4734C0.758854 65.9557 0 64.1313 0 62V13.6594C0 12.7552 0.145313 11.8833 0.435938 11.0438C0.726563 10.2042 1.1625 9.42917 1.74375 8.71875L6.5875 2.80938C7.29792 1.90521 8.18594 1.21094 9.25156 0.726562C10.3172 0.242188 11.4312 0 12.5938 0H57.1562C58.3188 0 59.4328 0.242188 60.4984 0.726562C61.5641 1.21094 62.4521 1.90521 63.1625 2.80938L68.0063 8.71875C68.5875 9.42917 69.0234 10.2042 69.3141 11.0438C69.6047 11.8833 69.75 12.7552 69.75 13.6594V62C69.75 64.1313 68.9911 65.9557 67.4734 67.4734C65.9557 68.9911 64.1313 69.75 62 69.75H7.75ZM9.3 11.625H60.45L57.1562 7.75H12.5938L9.3 11.625Z" fill="#34C759"/>
</svg>
