<svg width="77" height="38" viewBox="0 0 77 38" fill="none" xmlns="http://www.w3.org/2000/svg">
<path d="M0 38V33.0125C0 30.7431 1.17639 28.8958 3.52917 27.4708C5.88194 26.0458 8.98333 25.3333 12.8333 25.3333C13.5285 25.3333 14.1969 25.3465 14.8385 25.3729C15.4802 25.3993 16.0951 25.4653 16.6833 25.5708C15.9347 26.6792 15.3733 27.8403 14.999 29.0542C14.6247 30.2681 14.4375 31.5347 14.4375 32.8542V38H0ZM19.25 38V32.8542C19.25 31.1653 19.7179 29.6215 20.6536 28.2229C21.5894 26.8243 22.9128 25.5972 24.624 24.5417C26.3351 23.4861 28.3804 22.6944 30.7599 22.1667C33.1394 21.6389 35.7194 21.375 38.5 21.375C41.334 21.375 43.9408 21.6389 46.3203 22.1667C48.6998 22.6944 50.7451 23.4861 52.4562 24.5417C54.1674 25.5972 55.4774 26.8243 56.3865 28.2229C57.2955 29.6215 57.75 31.1653 57.75 32.8542V38H19.25ZM62.5625 38V32.8542C62.5625 31.4819 62.3887 30.1889 62.0411 28.975C61.6936 27.7611 61.1722 26.6264 60.4771 25.5708C61.0653 25.4653 61.6668 25.3993 62.2818 25.3729C62.8967 25.3465 63.525 25.3333 64.1667 25.3333C68.0167 25.3333 71.118 26.0326 73.4708 27.4313C75.8236 28.8299 77 30.6903 77 33.0125V38H62.5625ZM26.0677 31.6667H51.0125C50.4778 30.6111 48.9939 29.6875 46.5609 28.8958C44.1279 28.1042 41.441 27.7083 38.5 27.7083C35.559 27.7083 32.872 28.1042 30.4391 28.8958C28.0061 29.6875 26.549 30.6111 26.0677 31.6667ZM12.8333 22.1667C11.0687 22.1667 9.55816 21.5465 8.30156 20.3062C7.04497 19.066 6.41667 17.575 6.41667 15.8333C6.41667 14.0389 7.04497 12.5347 8.30156 11.3208C9.55816 10.1069 11.0687 9.5 12.8333 9.5C14.6514 9.5 16.1753 10.1069 17.4052 11.3208C18.6351 12.5347 19.25 14.0389 19.25 15.8333C19.25 17.575 18.6351 19.066 17.4052 20.3062C16.1753 21.5465 14.6514 22.1667 12.8333 22.1667ZM64.1667 22.1667C62.4021 22.1667 60.8915 21.5465 59.6349 20.3062C58.3783 19.066 57.75 17.575 57.75 15.8333C57.75 14.0389 58.3783 12.5347 59.6349 11.3208C60.8915 10.1069 62.4021 9.5 64.1667 9.5C65.9847 9.5 67.5087 10.1069 68.7385 11.3208C69.9684 12.5347 70.5833 14.0389 70.5833 15.8333C70.5833 17.575 69.9684 19.066 68.7385 20.3062C67.5087 21.5465 65.9847 22.1667 64.1667 22.1667ZM38.5 19C35.8264 19 33.5538 18.0764 31.6823 16.2292C29.8108 14.3819 28.875 12.1389 28.875 9.5C28.875 6.80833 29.8108 4.55208 31.6823 2.73125C33.5538 0.910417 35.8264 0 38.5 0C41.2271 0 43.513 0.910417 45.3578 2.73125C47.2026 4.55208 48.125 6.80833 48.125 9.5C48.125 12.1389 47.2026 14.3819 45.3578 16.2292C43.513 18.0764 41.2271 19 38.5 19ZM38.5 12.6667C39.409 12.6667 40.171 12.3632 40.7859 11.7563C41.4009 11.1493 41.7083 10.3972 41.7083 9.5C41.7083 8.60278 41.4009 7.8507 40.7859 7.24375C40.171 6.63681 39.409 6.33333 38.5 6.33333C37.591 6.33333 36.829 6.63681 36.2141 7.24375C35.5991 7.8507 35.2917 8.60278 35.2917 9.5C35.2917 10.3972 35.5991 11.1493 36.2141 11.7563C36.829 12.3632 37.591 12.6667 38.5 12.6667Z" fill="#34C759"/>
</svg>
