<svg width="67" height="60" viewBox="0 0 67 60" fill="none" xmlns="http://www.w3.org/2000/svg">
<path d="M11.125 52.5V56.25C11.125 57.3125 10.7696 58.2031 10.0589 58.9219C9.34809 59.6406 8.46736 60 7.41667 60H3.70833C2.65764 60 1.77691 59.6406 1.06615 58.9219C0.355382 58.2031 0 57.3125 0 56.25V26.25L7.7875 3.75C8.15833 2.625 8.82274 1.71875 9.78073 1.03125C10.7387 0.34375 11.8049 0 12.9792 0H53.7708C54.9451 0 56.0113 0.34375 56.9693 1.03125C57.9273 1.71875 58.5917 2.625 58.9625 3.75L66.75 26.25V56.25C66.75 57.3125 66.3946 58.2031 65.6839 58.9219C64.9731 59.6406 64.0924 60 63.0417 60H59.3333C58.2826 60 57.4019 59.6406 56.6911 58.9219C55.9804 58.2031 55.625 57.3125 55.625 56.25V52.5H11.125ZM10.3833 18.75H56.3667L52.4729 7.5H14.2771L10.3833 18.75ZM16.6875 41.25C18.2326 41.25 19.546 40.7031 20.6276 39.6094C21.7092 38.5156 22.25 37.1875 22.25 35.625C22.25 34.0625 21.7092 32.7344 20.6276 31.6406C19.546 30.5469 18.2326 30 16.6875 30C15.1424 30 13.829 30.5469 12.7474 31.6406C11.6658 32.7344 11.125 34.0625 11.125 35.625C11.125 37.1875 11.6658 38.5156 12.7474 39.6094C13.829 40.7031 15.1424 41.25 16.6875 41.25ZM50.0625 41.25C51.6076 41.25 52.921 40.7031 54.0026 39.6094C55.0842 38.5156 55.625 37.1875 55.625 35.625C55.625 34.0625 55.0842 32.7344 54.0026 31.6406C52.921 30.5469 51.6076 30 50.0625 30C48.5174 30 47.204 30.5469 46.1224 31.6406C45.0408 32.7344 44.5 34.0625 44.5 35.625C44.5 37.1875 45.0408 38.5156 46.1224 39.6094C47.204 40.7031 48.5174 41.25 50.0625 41.25ZM7.41667 45H59.3333V26.25H7.41667V45Z" fill="#34C759"/>
</svg>
